<svg xmlns="http://www.w3.org/2000/svg" width="27" height="27" viewBox="0 0 27 27"><path d="M11.8-16.73,8.154-22.806a1.684,1.684,0,0,0-1.447-.819H.845A.844.844,0,0,0,.154-22.3l5.868,8.383A10.914,10.914,0,0,1,11.8-16.73Zm14.355-6.9H20.293a1.687,1.687,0,0,0-1.447.819L15.2-16.73a10.917,10.917,0,0,1,5.778,2.815L26.846-22.3A.844.844,0,0,0,26.155-23.625ZM13.5-15.187A9.281,9.281,0,0,0,4.219-5.906,9.281,9.281,0,0,0,13.5,3.375a9.281,9.281,0,0,0,9.281-9.281A9.281,9.281,0,0,0,13.5-15.187Zm4.879,8.293-2,1.949.473,2.754a.606.606,0,0,1-.878.638L13.5-2.854l-2.473,1.3a.605.605,0,0,1-.878-.638l.473-2.754-2-1.949a.606.606,0,0,1,.335-1.033l2.765-.4,1.236-2.506a.6.6,0,0,1,.542-.337.6.6,0,0,1,.545.337L15.279-8.33l2.765.4A.606.606,0,0,1,18.379-6.895Z" transform="translate(0 23.625)" fill="#e8dd48"/></svg>