<svg xmlns="http://www.w3.org/2000/svg" width="354.291" height="128.663" viewBox="0 0 354.291 128.663"><g transform="translate(-207 -202.531)"><path d="M31.7,38.5l-4.988,11.63a2.008,2.008,0,0,1-1.847,1.221H6.033a6.031,6.031,0,1,0,0,12.062H24.868a14.065,14.065,0,0,0,12.941-8.529l3.4-7.941-2.4-1.45A22.024,22.024,0,0,1,31.7,38.5ZM68.389-17A12.067,12.067,0,0,0,80.458-29.063,12.065,12.065,0,0,0,68.389-41.125a12.065,12.065,0,0,0-12.07,12.062A12.067,12.067,0,0,0,68.389-17ZM98.521,19.325l-12.162-.043a2,2,0,0,1-1.912-1.422L80.941,6.321A22.165,22.165,0,0,0,64.652-8.814L44.989-13.262a21.982,21.982,0,0,0-18.41,4.076L14.424.2A6.031,6.031,0,1,0,21.8,9.744L33.965.356A10.121,10.121,0,0,1,42.333-1.5l3.739.847L37.2,21.3a14.019,14.019,0,0,0,5.775,17.316l21.053,12.71a2,2,0,0,1,.892,2.274L56.553,79.851A6.031,6.031,0,0,0,60.7,87.307a6.116,6.116,0,0,0,1.661.231,6.038,6.038,0,0,0,5.8-4.375l8.368-26.252A14.1,14.1,0,0,0,70.269,41L57.239,33.131,67.778,6.8a9.882,9.882,0,0,1,1.613,3.033L72.9,21.373a14.008,14.008,0,0,0,13.421,9.974l12.163.043h.02a6.032,6.032,0,0,0,.017-12.065Z" transform="translate(207 243.656)" fill="#5d78ff"/><path d="M29.33-39.685H10.537L.986,14.076H19.779c17.253,0,30.269-10.552,33.119-26.8C55.825-29.056,46.506-39.685,29.33-39.685ZM13.463,5.3l6.316-35.969h7.548c11.4,0,16.483,6.778,14.557,17.946C39.882-1.56,32.411,5.3,21.012,5.3ZM59.984-7.413C57.6,5.911,64.683,14.769,75.466,14.769a20.382,20.382,0,0,0,15.4-6.932l-1.155,6.239h10.86l7.548-42.67H97.263l-1.078,6.085c-1.849-3.543-6.008-6.778-12.863-6.778C72.462-29.287,62.3-20.738,59.984-7.413Zm33.5.154C92.1.828,85.864,5.3,80.01,5.3,74.233,5.3,69.612.674,71-7.413c1.463-8.087,7.7-12.4,13.479-12.4C90.331-19.814,94.952-15.346,93.489-7.259Zm55.378,9.166c0-13.248-21.027-11.476-21.027-18.639,0-2.7,2.619-4.39,6.316-4.39,4.544,0,7.009,2.388,6.7,5.931H150.87c.847-8.241-5.854-14.095-16.251-14.095-10.321,0-17.33,5.314-17.33,12.863,0,13.864,21.181,11.707,21.181,18.639,0,3-3.312,4.39-7.163,4.39-4.544,0-7.163-2.465-6.855-6.008H113.976c-1.232,8.318,6.316,14.172,16.56,14.172C141.011,14.769,148.867,9.994,148.867,1.906Zm9.628,12.169h10.86l4.313-24.185c1.309-6.47,5.623-9.936,11.322-9.936s8.78,3.7,7.625,10.552l-4.159,23.568h10.706l4.467-25.032c2.08-11.784-3.851-18.254-13.4-18.254a19.923,19.923,0,0,0-14.249,5.854l3.466-19.563h-10.86Z" transform="translate(357.247 266.874)" fill="#fff"/><path d="M31.7,38.5l-4.988,11.63a2.008,2.008,0,0,1-1.847,1.221H6.033a6.031,6.031,0,1,0,0,12.062H24.868a14.065,14.065,0,0,0,12.941-8.529l3.4-7.941-2.4-1.45A22.024,22.024,0,0,1,31.7,38.5ZM68.389-17A12.067,12.067,0,0,0,80.458-29.063,12.065,12.065,0,0,0,68.389-41.125a12.065,12.065,0,0,0-12.07,12.062A12.067,12.067,0,0,0,68.389-17ZM98.521,19.325l-12.162-.043a2,2,0,0,1-1.912-1.422L80.941,6.321A22.165,22.165,0,0,0,64.652-8.814L44.989-13.262a21.982,21.982,0,0,0-18.41,4.076L14.424.2A6.031,6.031,0,1,0,21.8,9.744L33.965.356A10.121,10.121,0,0,1,42.333-1.5l3.739.847L37.2,21.3a14.019,14.019,0,0,0,5.775,17.316l21.053,12.71a2,2,0,0,1,.892,2.274L56.553,79.851A6.031,6.031,0,0,0,60.7,87.307a6.116,6.116,0,0,0,1.661.231,6.038,6.038,0,0,0,5.8-4.375l8.368-26.252A14.1,14.1,0,0,0,70.269,41L57.239,33.131,67.778,6.8a9.882,9.882,0,0,1,1.613,3.033L72.9,21.373a14.008,14.008,0,0,0,13.421,9.974l12.163.043h.02a6.032,6.032,0,0,0,.017-12.065Z" transform="translate(212.731 243.656)" fill="#fff"/><path d="M12.292-4.172c0-4.816-7.728-3.808-7.728-7.112,0-1.4,1.316-2.268,3.136-2.268,1.988,0,3.276,1.092,3.08,2.772h2.436C13.58-13.664,11.2-15.6,7.868-15.6c-3.416,0-5.852,1.764-5.852,4.4,0,5.012,7.756,3.976,7.756,7.112,0,1.484-1.484,2.3-3.5,2.3-2.128,0-3.248-1.148-3.108-2.716H.672C.336-1.6,2.8.252,6.132.252,9.66.252,12.292-1.428,12.292-4.172Zm8.792-8.344.5-2.828H19.04L15.064,7.28h2.548L19.376-2.828A5.433,5.433,0,0,0,24.584.252c4.116,0,7.84-3.22,8.68-7.98C34.1-12.516,31.5-15.6,27.356-15.6A7.983,7.983,0,0,0,21.084-12.516ZM30.66-7.728c-.644,3.612-3.388,5.74-6.216,5.74-2.772,0-4.844-2.1-4.2-5.712a6.561,6.561,0,0,1,6.216-5.684C29.288-13.384,31.3-11.34,30.66-7.728ZM45.136-13.44c2.632,0,4.564,1.652,4,4.788H39.424A5.962,5.962,0,0,1,45.136-13.44Zm5.628,8.708H48.02A5.159,5.159,0,0,1,43.232-1.9c-2.66,0-4.536-1.764-4.144-4.9H51.352a9.886,9.886,0,0,0,.364-1.512c.728-4.144-1.652-7.28-6.1-7.28s-8.12,3.052-8.988,7.9C35.756-2.828,38.472.252,42.84.252A8.548,8.548,0,0,0,50.764-4.732ZM63.476-13.44c2.632,0,4.564,1.652,4,4.788H57.764A5.962,5.962,0,0,1,63.476-13.44ZM69.1-4.732H66.36A5.159,5.159,0,0,1,61.572-1.9c-2.66,0-4.536-1.764-4.144-4.9H69.692a9.886,9.886,0,0,0,.364-1.512c.728-4.144-1.652-7.28-6.1-7.28s-8.12,3.052-8.988,7.9C54.1-2.828,56.812.252,61.18.252A8.548,8.548,0,0,0,69.1-4.732Zm4.2-3c-.84,4.76,1.792,7.98,5.908,7.98a7.741,7.741,0,0,0,6.272-3.136L84.952,0h2.576L91.2-20.72H88.62L87.192-12.6a5.478,5.478,0,0,0-5.152-3C77.868-15.6,74.144-12.516,73.3-7.728Zm13.02.028a6.515,6.515,0,0,1-6.216,5.712c-2.8,0-4.816-2.128-4.172-5.74a6.412,6.412,0,0,1,6.188-5.656C84.924-13.384,86.968-11.256,86.324-7.7Zm10.528-.644c.644-3.556,2.66-4.648,5.1-4.648h.672l.476-2.632a6.285,6.285,0,0,0-5.516,3.192l.5-2.912H95.536L92.82,0h2.548Zm23.716-7H118.02l-1.512,8.512v-.084c-.532,3.3-2.632,4.928-5.236,4.928-2.576,0-3.976-1.6-3.444-4.7l1.512-8.652h-2.52l-1.6,8.988c-.756,4.4,1.624,6.58,5.152,6.58A6.819,6.819,0,0,0,115.7-2.24L115.3,0h2.548ZM134.372,0h2.52l1.6-9.044c.784-4.4-1.568-6.58-5.1-6.58a6.829,6.829,0,0,0-5.376,2.492l.392-2.212H125.86L123.144,0h2.548L127.2-8.54v.056c.588-3.3,2.66-4.928,5.264-4.928,2.576,0,3.976,1.6,3.444,4.732Zm10.472-1.568a1.393,1.393,0,0,0-1.4-1.736A2.122,2.122,0,0,0,141.4-1.568,1.4,1.4,0,0,0,142.828.168,2.116,2.116,0,0,0,144.844-1.568ZM148.9,0h2.548l2.716-15.344H151.62Zm4.452-17.836a2.116,2.116,0,0,0,2.016-1.736,1.393,1.393,0,0,0-1.4-1.736,2.116,2.116,0,0,0-2.016,1.736A1.393,1.393,0,0,0,153.356-17.836Zm19.488,8.652c0-3.892-2.688-6.412-6.58-6.412a9.212,9.212,0,0,0-9.24,9.464c0,3.836,2.6,6.384,6.5,6.384A9.258,9.258,0,0,0,172.844-9.184Zm-13.188,2.94c0-3.808,2.492-7.2,6.244-7.2a4.075,4.075,0,0,1,4.312,4.4c0,3.752-2.66,7.14-6.384,7.14A3.983,3.983,0,0,1,159.656-6.244Z" transform="translate(358 321.194)" fill="#fff"/></g></svg>